<svg width="48" height="48" viewBox="0 0 48 48" fill="none" xmlns="http://www.w3.org/2000/svg">
<path d="M22.1 29.9L18.4 33.6C17.62 34.38 16.38 34.38 15.58 33.62C15.36 33.4 15.14 33.2 14.92 32.98C12.86 30.9 11 28.72 9.34 26.44C7.7 24.16 6.38 21.88 5.42 19.62C4.48 17.34 4 15.16 4 13.08C4 11.72 4.24 10.42 4.72 9.22C5.2 8 5.96 6.88 7.02 5.88C8.3 4.62 9.7 4 11.18 4C11.74 4 12.3 4.12 12.8 4.36C13.32 4.6 13.78 4.96 14.14 5.48L18.78 12.02C19.14 12.52 19.4 12.98 19.58 13.42C19.76 13.84 19.86 14.26 19.86 14.64C19.86 15.12 19.72 15.6 19.44 16.06C19.18 16.52 18.8 17 18.32 17.48L16.8 19.06C16.58 19.28 16.48 19.54 16.48 19.86C16.48 20.02 16.5 20.16 16.54 20.32C16.6 20.48 16.66 20.6 16.7 20.72C17.06 21.38 17.68 22.24 18.56 23.28C19.46 24.32 20.42 25.38 21.46 26.44C21.66 26.64 21.88 26.84 22.08 27.04C22.88 27.82 22.9 29.1 22.1 29.9Z" fill="#DF534E"/>
<path d="M43.9402 36.66C43.9402 37.22 43.8402 37.8 43.6402 38.36C43.5802 38.52 43.5202 38.68 43.4402 38.84C43.1002 39.56 42.6602 40.24 42.0802 40.88C41.1002 41.96 40.0202 42.74 38.8002 43.24C38.7802 43.24 38.7602 43.26 38.7402 43.26C37.5602 43.74 36.2802 44 34.9002 44C32.8602 44 30.6802 43.52 28.3802 42.54C26.0802 41.56 23.7802 40.24 21.5002 38.58C20.7202 38 19.9402 37.42 19.2002 36.8L25.7402 30.26C26.3002 30.68 26.8002 31 27.2202 31.22C27.3202 31.26 27.4402 31.32 27.5802 31.38C27.7402 31.44 27.9002 31.46 28.0802 31.46C28.4202 31.46 28.6802 31.34 28.9002 31.12L30.4202 29.62C30.9202 29.12 31.4002 28.74 31.8602 28.5C32.3202 28.22 32.7802 28.08 33.2802 28.08C33.6602 28.08 34.0602 28.16 34.5002 28.34C34.9402 28.52 35.4002 28.78 35.9002 29.12L42.5202 33.82C43.0402 34.18 43.4002 34.6 43.6202 35.1C43.8202 35.6 43.9402 36.1 43.9402 36.66Z" fill="#DF534E"/>
</svg>
