<svg width="50" height="50" viewBox="0 0 50 50" fill="none" xmlns="http://www.w3.org/2000/svg">
<path d="M19.4167 27.6667H25.8542V42.6667C25.8542 44.875 28.6042 45.9167 30.0625 44.25L45.8334 26.3333C47.2084 24.7708 46.1042 22.3333 44.0208 22.3333H37.5834V7.33333C37.5834 5.125 34.8333 4.08333 33.375 5.75L17.6042 23.6667C16.25 25.2292 17.3542 27.6667 19.4167 27.6667Z" fill="#DF534E"/>
<path d="M17.7083 9.89581H3.125C2.27083 9.89581 1.5625 9.18748 1.5625 8.33331C1.5625 7.47915 2.27083 6.77081 3.125 6.77081H17.7083C18.5625 6.77081 19.2708 7.47915 19.2708 8.33331C19.2708 9.18748 18.5625 9.89581 17.7083 9.89581Z" fill="#DF534E"/>
<path d="M15.625 43.2292H3.125C2.27083 43.2292 1.5625 42.5209 1.5625 41.6667C1.5625 40.8125 2.27083 40.1042 3.125 40.1042H15.625C16.4792 40.1042 17.1875 40.8125 17.1875 41.6667C17.1875 42.5209 16.4792 43.2292 15.625 43.2292Z" fill="#DF534E"/>
<path d="M9.375 26.5625H3.125C2.27083 26.5625 1.5625 25.8542 1.5625 25C1.5625 24.1458 2.27083 23.4375 3.125 23.4375H9.375C10.2292 23.4375 10.9375 24.1458 10.9375 25C10.9375 25.8542 10.2292 26.5625 9.375 26.5625Z" fill="#DF534E"/>
</svg>
