<svg width="31" height="31" viewBox="0 0 31 31" fill="none" xmlns="http://www.w3.org/2000/svg">
<path d="M20.3871 2.54834H10.1936C5.09679 2.54834 2.5484 5.09673 2.5484 10.1935V26.758C2.5484 27.4588 3.12179 28.0322 3.82259 28.0322H20.3871C25.4839 28.0322 28.0323 25.4838 28.0323 20.387V10.1935C28.0323 5.09673 25.4839 2.54834 20.3871 2.54834ZM17.8387 19.4314H8.91937C8.39695 19.4314 7.96372 18.9982 7.96372 18.4758C7.96372 17.9533 8.39695 17.5201 8.91937 17.5201H17.8387C18.3611 17.5201 18.7944 17.9533 18.7944 18.4758C18.7944 18.9982 18.3611 19.4314 17.8387 19.4314ZM21.6613 13.0604H8.91937C8.39695 13.0604 7.96372 12.6272 7.96372 12.1048C7.96372 11.5824 8.39695 11.1491 8.91937 11.1491H21.6613C22.1837 11.1491 22.6169 11.5824 22.6169 12.1048C22.6169 12.6272 22.1837 13.0604 21.6613 13.0604Z" fill="#DF534E"/>
</svg>
