<svg width="50" height="50" viewBox="0 0 50 50" fill="none" xmlns="http://www.w3.org/2000/svg">
<path d="M36.5209 16.1875C36.3751 16.1667 36.2292 16.1667 36.0834 16.1875C32.8542 16.0834 30.2917 13.4375 30.2917 10.1875C30.2917 6.87502 32.9792 4.16669 36.3126 4.16669C39.6251 4.16669 42.3334 6.85419 42.3334 10.1875C42.3126 13.4375 39.7501 16.0834 36.5209 16.1875Z" fill="white"/>
<path d="M43.3127 30.6249C40.9793 32.1874 37.7085 32.7708 34.6877 32.3749C35.4793 30.6666 35.896 28.7708 35.9168 26.7708C35.9168 24.6874 35.4585 22.7083 34.5835 20.9791C37.6668 20.5624 40.9377 21.1458 43.2918 22.7083C46.5835 24.8749 46.5835 28.4374 43.3127 30.6249Z" fill="white"/>
<path d="M13.4168 16.1875C13.5626 16.1666 13.7085 16.1666 13.8543 16.1875C17.0835 16.0833 19.646 13.4375 19.646 10.1875C19.646 6.85413 16.9585 4.16663 13.6251 4.16663C10.3126 4.16663 7.62512 6.85413 7.62512 10.1875C7.62512 13.4375 10.1876 16.0833 13.4168 16.1875Z" fill="white"/>
<path d="M13.6461 26.7708C13.6461 28.7916 14.0836 30.7083 14.8752 32.4375C11.9377 32.75 8.87524 32.125 6.62524 30.6458C3.33358 28.4583 3.33358 24.8958 6.62524 22.7083C8.85441 21.2083 12.0002 20.6041 14.9586 20.9375C14.1044 22.6875 13.6461 24.6666 13.6461 26.7708Z" fill="white"/>
<path d="M25.2494 33.0625C25.0827 33.0417 24.8952 33.0417 24.7077 33.0625C20.8744 32.9375 17.8119 29.7917 17.8119 25.9167C17.8327 21.9583 21.0202 18.75 24.9994 18.75C28.9577 18.75 32.1661 21.9583 32.1661 25.9167C32.1452 29.7917 29.1036 32.9375 25.2494 33.0625Z" fill="white"/>
<path d="M18.4788 37.375C15.3329 39.4792 15.3329 42.9375 18.4788 45.0208C22.0621 47.4167 27.9371 47.4167 31.5204 45.0208C34.6663 42.9167 34.6663 39.4583 31.5204 37.375C27.9579 34.9792 22.0829 34.9792 18.4788 37.375Z" fill="white"/>
</svg>
