<svg width="1228" height="554" viewBox="0 0 1228 554" fill="none" xmlns="http://www.w3.org/2000/svg">
<path fill-rule="evenodd" clip-rule="evenodd" d="M464.448 15.6033C443.453 0.712896 417.524 2.35078 388.019 13.9696C386.774 14.4597 385.368 13.8478 384.878 12.6027C384.388 11.3577 384.999 9.95104 386.244 9.46089C416.353 -2.39539 444.279 -4.64176 467.25 11.6506C480.18 20.8209 488.301 31.7901 492.49 44.2742C496.667 56.7211 496.877 70.4943 494.3 85.2142C489.16 114.568 472.818 148.271 453.589 183.911C448.378 193.57 442.951 203.377 437.463 213.294C422.624 240.111 407.338 267.738 394.638 295.455C377.248 333.411 364.884 371.191 365.23 406.755C365.243 408.093 364.169 409.188 362.831 409.201C361.494 409.214 360.399 408.14 360.386 406.802C360.029 370.167 372.746 331.606 390.235 293.436C403.017 265.539 418.44 237.665 433.307 210.797C438.775 200.916 444.168 191.17 449.326 181.61C468.585 145.914 484.542 112.855 489.528 84.3783C492.014 70.183 491.743 57.2739 487.898 45.8162C484.065 34.3956 476.622 24.2377 464.448 15.6033ZM1.74161 74.2709C3.02531 73.8946 4.3709 74.6305 4.74707 75.9146C23.6608 140.477 51.9336 166.159 84.9624 169.998C101.661 171.939 119.897 168.357 139.254 160.918C158.602 153.482 178.922 142.251 199.738 129.062C200.868 128.346 202.364 128.682 203.08 129.812C203.796 130.943 203.46 132.439 202.33 133.155C181.392 146.422 160.766 157.841 140.991 165.441C121.225 173.037 102.162 176.875 84.4033 174.811C48.5167 170.64 19.2379 142.61 0.0983707 77.2772C-0.277797 75.9931 0.457905 74.6472 1.74161 74.2709ZM247.015 99.9734C247.786 101.067 247.525 102.578 246.431 103.35C237.385 109.733 228.339 116.017 219.337 122.051C218.226 122.796 216.721 122.499 215.977 121.387C215.232 120.276 215.529 118.771 216.64 118.026C225.599 112.021 234.61 105.761 243.639 99.3902C244.732 98.6189 246.244 98.88 247.015 99.9734ZM1227.08 244.231C1228.13 245.064 1228.31 246.588 1227.47 247.635C1204.7 276.318 1170.1 307.456 1127.67 338.5C1126.59 339.29 1125.07 339.055 1124.28 337.975C1123.49 336.895 1123.73 335.379 1124.81 334.589C1167.05 303.679 1201.28 272.834 1223.68 244.622C1224.51 243.574 1226.04 243.399 1227.08 244.231ZM1109.29 348.654C1110.05 349.753 1109.78 351.263 1108.68 352.025C1090.51 364.634 1071.13 377.175 1050.79 389.477C1049.65 390.169 1048.16 389.802 1047.46 388.657C1046.77 387.513 1047.14 386.023 1048.28 385.331C1068.54 373.077 1087.84 360.591 1105.92 348.044C1107.02 347.281 1108.53 347.554 1109.29 348.654ZM983.495 424.712C984.117 425.897 983.661 427.362 982.477 427.984C881.656 480.939 766.745 525.138 662.877 544.082C661.561 544.322 660.299 543.449 660.059 542.133C659.819 540.816 660.692 539.555 662.008 539.315C765.266 520.482 879.705 476.491 980.224 423.694C981.409 423.072 982.873 423.528 983.495 424.712ZM370.615 450.943C371.86 450.454 373.266 451.067 373.755 452.312C377.481 461.8 382.528 471.053 389.086 480.025C425.962 530.465 490.93 550.482 569.956 549.087C571.294 549.063 572.397 550.128 572.421 551.466C572.444 552.804 571.379 553.908 570.042 553.931C490.354 555.338 423.414 535.189 385.176 482.885C378.376 473.583 373.127 463.965 369.246 454.084C368.757 452.839 369.37 451.432 370.615 450.943ZM641.425 545.209C641.619 546.533 640.704 547.764 639.381 547.958C624.914 550.086 610.702 551.682 596.819 552.697C595.485 552.795 594.324 551.792 594.226 550.458C594.129 549.123 595.131 547.962 596.465 547.865C610.221 546.858 624.315 545.276 638.676 543.164C640 542.97 641.23 543.885 641.425 545.209Z" fill="#E8817D"/>
</svg>
