<svg width="555" height="591" viewBox="0 0 555 591" fill="none" xmlns="http://www.w3.org/2000/svg">
<path d="M446.395 510.761C466.912 466.08 421.062 407.12 492.781 361.662C558.748 319.85 570.973 224.576 522.543 124.609C488.184 53.6871 381.827 -19.6558 239.5 9.60041M38.7614 154.5C58.7986 116.204 89.4864 78.0612 136 49.4296M17.8483 205C16.3488 209.741 14.9896 214.415 13.7592 219M8.64932 241C7.3024 247.847 6.24324 254.375 5.42428 260.5C3.3365 276.114 2.80974 289.102 3.05598 298.04C4.39403 346.606 15.9905 574.383 211.345 586.039C357.881 594.782 405.291 573.194 428.495 543" stroke="#E8817D" stroke-width="6" stroke-linecap="round"/>
</svg>
