<svg width="238" height="225" viewBox="0 0 238 225" fill="none" xmlns="http://www.w3.org/2000/svg">
<path fill-rule="evenodd" clip-rule="evenodd" d="M74.7999 2.69772C67.6813 10.579 64.2007 20.2413 64.1393 32.2926C64.0931 41.3745 67.3454 56.5368 71.4995 66.6055C74.7065 74.3792 77.0837 79.5386 79.6258 84.2435C82.3846 89.349 82.3946 89.3724 82.0062 89.6868C81.8349 89.8254 79.4524 89.4541 76.7112 88.8614C57.4737 84.7038 40.3391 85.1617 27.3653 90.1812C20.9165 92.6761 12.4573 99.3071 8.78525 104.746C2.667 113.808 -0.50967 128.352 1.00661 140.359C2.10766 149.072 4.46722 156.401 8.56629 163.839C11.3965 168.973 17.9791 177.74 21.7272 181.366C25.8114 185.318 29.7233 188.83 31.5954 190.225C33.7773 191.852 43.3306 198.304 44.3596 198.846C44.7927 199.075 47.0927 200.293 49.4705 201.554C53.7858 203.841 54.7637 204.305 60.7504 206.901C67.3433 209.761 77.311 213.085 85.395 215.121C101.871 219.27 123.575 222.005 141.269 222.161C148.279 222.224 152.773 222.218 154.124 222.144C154.891 222.103 156.745 222.024 158.245 221.968C165.726 221.692 172.497 221.192 180.112 220.354C183.545 219.976 187.854 219.504 189.689 219.305C194.84 218.747 213.922 215.592 214.903 215.137C215.384 214.914 216.106 214.798 216.508 214.878C217.736 215.123 217.38 216.323 215.304 218.934C214.183 220.344 213.364 221.782 213.329 222.402C213.275 223.376 213.387 223.525 214.734 224.27C216.162 225.059 216.233 225.047 217.632 223.784C218.421 223.071 219.72 221.606 220.519 220.527C223.297 216.773 230.281 211.953 234.076 211.169C235.785 210.817 236.697 209.998 237.32 208.255C238.341 205.4 234.939 203.333 232.486 205.318C232.168 205.576 230.491 206.098 228.759 206.48C223.613 207.614 218.294 206.496 211.861 202.927C210.301 202.062 209.401 202.425 208.264 204.376C207.803 205.169 207.868 205.557 208.619 206.485C209.125 207.11 210.048 207.849 210.671 208.127C211.294 208.404 212.164 208.873 212.604 209.168C213.817 209.982 212.545 210.76 209.276 211.204C207.771 211.408 206.447 211.65 206.334 211.742C206.22 211.834 204.267 212.167 201.995 212.481C199.722 212.795 197.362 213.167 196.751 213.307C196.139 213.446 195.211 213.61 194.687 213.669C194.163 213.73 192.463 213.92 190.908 214.092C189.353 214.264 188.023 214.452 187.953 214.509C187.882 214.566 185.855 214.785 183.448 214.996C181.041 215.207 178.99 215.445 178.89 215.526C178.677 215.698 169.68 216.376 165.69 216.521C164.175 216.576 162.556 216.685 162.093 216.763C160.533 217.024 145.979 217.278 139.223 217.161C131.965 217.035 119.317 216.089 112.849 215.189C109.131 214.671 105.563 214.183 104.918 214.102C103.134 213.88 97.8222 212.842 94.9659 212.157C93.5632 211.82 92.2635 211.55 92.0778 211.555C90.8955 211.591 71.9399 206.232 71.5514 205.752C71.4832 205.668 69.66 204.964 67.4999 204.187C63.3702 202.703 54.7215 198.791 51.1357 196.785C49.9724 196.134 48.3959 195.277 47.6329 194.882C44.9427 193.486 39.7804 189.987 33.8288 185.523C30.9572 183.369 30.5055 182.967 26.339 178.852C21.4272 174.002 18.2059 170.036 15.0177 164.915C11.7395 159.649 11.4318 159.011 8.90791 152.261C6.00639 144.5 4.93372 134.117 6.22306 126.271C8.47995 112.537 14.2501 102.902 23.3947 97.599C26.8119 95.6176 33.3648 93.1431 37.0466 92.444C41.3238 91.6322 41.4502 91.6126 44.4957 91.2868C52.9732 90.3807 67.6587 91.7357 78.3507 94.4114C87.3037 96.652 87.2982 96.6491 89.0041 99.6883C91.5592 104.24 101.184 116.347 106.042 121.12C115.346 130.262 121.652 134.34 127.428 134.951C133.436 135.587 137.413 132.528 137.918 126.883C138.223 123.483 135.92 118.824 132.207 115.324C126.979 110.396 122.975 107.486 115.97 103.524C112.51 101.567 101.884 96.6026 99.6807 95.9135C99.0357 95.7116 98.0445 95.3293 97.4785 95.0636C96.9122 94.7981 95.8924 94.4026 95.2121 94.1851C90.3937 92.6429 89.9665 92.3722 88.604 89.9996C85.7444 85.0195 80.926 75.9298 80.1875 74.1219C79.755 73.0638 79.2315 71.9877 79.0242 71.7317C78.2649 70.7933 73.5632 57.6582 72.2693 52.8608C67.6456 35.7172 68.1852 22.5072 73.9234 12.3588C75.0723 10.3273 77.8107 6.75378 78.8848 5.88466C79.357 5.50253 79.8887 4.6848 80.0663 4.0674C80.3401 3.11462 80.2072 2.7732 79.186 1.8088C77.544 0.257647 76.8826 0.391708 74.7999 2.69772ZM100.582 101.633C106.773 104.188 116.35 109.244 119.969 111.869C120.535 112.279 122.162 113.45 123.585 114.47C126.846 116.809 131.459 121.775 132.433 123.994C133.284 125.934 132.929 127.964 131.543 129.086C127.496 132.36 118.108 126.925 107.09 114.928C102.381 109.802 96.4538 102.231 96.3189 101.172C96.1908 100.16 97.3059 100.281 100.582 101.633Z" fill="#E8817D"/>
</svg>
