<svg width="236" height="229" viewBox="0 0 236 229" fill="none" xmlns="http://www.w3.org/2000/svg">
<path fill-rule="evenodd" clip-rule="evenodd" d="M78.538 2.60944C71.1952 10.2822 67.4374 19.8401 67.0286 31.8847C66.7205 40.9615 69.5342 56.2112 73.3964 66.3955C76.3779 74.2584 78.6054 79.4843 81.0108 84.2605C83.6212 89.4434 83.6305 89.4671 83.2331 89.7701C83.0579 89.9038 80.6872 89.4639 77.9642 88.7924C58.8545 84.0819 41.7139 84.0456 28.6007 88.6888C22.0826 90.9968 13.4359 97.3812 9.60847 102.712C3.23147 111.594 -0.363215 126.04 0.806253 138.086C1.65561 146.827 3.80288 154.221 7.68579 161.774C10.3668 166.988 16.6939 175.941 20.3359 179.674C24.3044 183.742 28.1134 187.365 29.9446 188.813C32.0787 190.502 41.4419 197.227 42.4548 197.799C42.8812 198.04 45.1451 199.324 47.4856 200.652C51.7331 203.064 52.6973 203.555 58.6066 206.323C65.1144 209.371 74.982 212.982 83.004 215.249C99.3539 219.872 120.969 223.231 138.652 223.898C145.657 224.163 150.15 224.286 151.502 224.252C152.269 224.233 154.125 224.207 155.626 224.195C163.112 224.135 169.895 223.83 177.531 223.212C180.973 222.933 185.294 222.585 187.134 222.44C192.299 222.03 211.464 219.427 212.458 219C212.944 218.791 213.67 218.695 214.069 218.787C215.29 219.068 214.899 220.257 212.749 222.807C211.588 224.184 210.728 225.598 210.675 226.216C210.593 227.189 210.701 227.341 212.025 228.124C213.43 228.954 213.501 228.945 214.936 227.722C215.746 227.033 217.086 225.605 217.916 224.549C220.801 220.877 227.921 216.261 231.737 215.587C233.456 215.284 234.391 214.491 235.064 212.767C236.167 209.943 232.826 207.778 230.317 209.692C229.991 209.94 228.299 210.415 226.557 210.746C221.38 211.731 216.096 210.46 209.769 206.707C208.235 205.798 207.325 206.135 206.132 208.052C205.648 208.831 205.702 209.221 206.426 210.17C206.913 210.81 207.815 211.575 208.43 211.871C209.044 212.166 209.9 212.66 210.332 212.968C211.52 213.816 210.227 214.557 206.946 214.906C205.436 215.067 204.106 215.271 203.99 215.359C203.873 215.448 201.912 215.724 199.631 215.973C197.35 216.222 194.981 216.525 194.366 216.647C193.75 216.769 192.818 216.906 192.292 216.95C191.767 216.995 190.062 217.136 188.502 217.264C186.943 217.391 185.609 217.54 185.537 217.595C185.465 217.65 183.432 217.811 181.02 217.952C178.608 218.094 176.55 218.273 176.449 218.351C176.231 218.517 167.218 218.935 163.225 218.965C161.709 218.976 160.088 219.038 159.622 219.102C158.056 219.319 143.501 219.153 136.75 218.841C129.5 218.506 116.884 217.196 110.444 216.109C106.743 215.485 103.191 214.893 102.549 214.795C100.771 214.521 95.4917 213.33 92.6564 212.563C91.2639 212.186 89.9726 211.878 89.7868 211.878C88.604 211.88 69.8107 205.977 69.4363 205.486C69.3705 205.4 67.5684 204.643 65.4315 203.805C61.3464 202.202 52.8141 198.042 49.2876 195.933C48.1435 195.249 46.5924 194.348 45.8411 193.93C43.1923 192.458 38.133 188.811 32.3126 184.177C29.5043 181.942 29.0644 181.527 25.0183 177.294C20.2483 172.304 17.1427 168.247 14.1035 163.036C10.9785 157.677 10.6893 157.031 8.36111 150.21C5.68455 142.369 4.91169 131.96 6.42671 124.155C9.07868 110.49 15.1242 101.027 24.4179 95.9891C27.8908 94.107 34.5123 91.8226 38.2128 91.2299C42.5116 90.5417 42.6385 90.5258 45.6922 90.2879C54.1923 89.6266 68.8325 91.4045 79.443 94.3874C88.3277 96.8852 88.3223 96.8821 89.9398 99.9692C92.3626 104.593 101.634 116.972 106.353 121.883C115.389 131.29 121.575 135.548 127.331 136.326C133.318 137.134 137.382 134.191 138.05 128.563C138.452 125.173 136.285 120.449 132.674 116.844C127.59 111.767 123.672 108.743 116.784 104.581C113.382 102.525 102.903 97.2562 100.721 96.5039C100.082 96.2835 99.1022 95.8728 98.5441 95.5908C97.9856 95.3091 96.9777 94.8843 96.3039 94.6473C91.532 92.9669 91.1128 92.684 89.8192 90.273C87.1044 85.2125 82.5501 75.9878 81.864 74.1592C81.4622 73.0891 80.9699 71.9984 80.7702 71.7365C80.0382 70.7766 75.7172 57.5114 74.5621 52.6787C70.4347 35.4089 71.3549 22.22 77.3833 12.2412C78.5903 10.2438 81.4307 6.75063 82.5293 5.91284C83.0123 5.54449 83.5675 4.74242 83.7627 4.1304C84.0639 3.18591 83.9409 2.8408 82.9479 1.84736C81.3513 0.249505 80.6864 0.364445 78.538 2.60944ZM101.457 102.247C107.572 104.979 116.999 110.309 120.541 113.038C121.095 113.464 122.687 114.681 124.08 115.742C127.273 118.174 131.74 123.271 132.65 125.517C133.445 127.481 133.031 129.5 131.613 130.581C127.474 133.738 118.247 128.034 107.578 115.725C103.02 110.465 97.3131 102.726 97.2088 101.663C97.1099 100.648 98.221 100.801 101.457 102.247Z" fill="#E8817D"/>
</svg>
