<svg width="373" height="243" viewBox="0 0 373 243" fill="none" xmlns="http://www.w3.org/2000/svg">
<path fill-rule="evenodd" clip-rule="evenodd" d="M208.031 2.33075C218.468 0.677921 228.467 -0.0500205 238.017 0.00266094C239.674 0.0118002 241.01 1.36233 241 3.01916C240.991 4.67599 239.641 6.01171 237.984 6.00257C228.763 5.95171 219.089 6.65432 208.97 8.25689C195.744 10.3514 185.63 15.7246 178.044 23.4025C170.43 31.107 165.22 41.2781 162.08 53.1543C159.05 64.6183 157.978 77.5655 158.493 91.1735C188.932 109.543 213.217 133.208 229.61 156.261C230.57 157.612 230.254 159.485 228.903 160.445C227.553 161.405 225.68 161.089 224.72 159.739C209.399 138.192 186.952 116.062 158.916 98.4783C159.876 110.916 162.069 123.772 165.224 136.444C172.497 165.661 184.784 193.514 198.356 212.519C205.153 222.038 212.143 229.153 218.82 233.178C225.447 237.173 231.446 237.964 236.765 235.56C244.096 232.247 247.785 225.208 247.624 214.882C247.461 204.458 243.313 191.158 235.369 176.65C234.573 175.197 235.106 173.373 236.56 172.578C238.013 171.782 239.836 172.315 240.632 173.768C248.827 188.735 253.44 203.019 253.623 214.788C253.808 226.656 249.428 236.422 239.236 241.028C231.555 244.499 223.429 242.962 215.722 238.316C208.065 233.701 200.512 225.863 193.473 216.006C179.373 196.261 166.816 167.676 159.402 137.894C155.836 123.569 153.437 108.877 152.651 94.681C134.826 84.246 114.91 75.6905 93.2659 70.2244C91.6595 69.8187 90.6861 68.1876 91.0918 66.5812C91.4975 64.9747 93.1286 64.0014 94.735 64.407C115.635 69.685 134.955 77.7624 152.394 87.6115C152.18 74.8668 153.363 62.6527 156.28 51.6209C159.617 38.997 165.254 27.8088 173.776 19.1852C182.324 10.5349 193.632 4.6112 208.031 2.33075ZM252.519 3.67994C252.701 2.03318 254.184 0.846206 255.831 1.02877C262.913 1.81385 269.706 3.02736 276.205 4.59668C277.815 4.98559 278.806 6.60648 278.417 8.21705C278.028 9.82761 276.407 10.818 274.796 10.429C268.539 8.91812 261.996 7.74895 255.17 6.99223C253.523 6.80967 252.336 5.32671 252.519 3.67994ZM284.146 9.83148C284.655 8.25488 286.346 7.38976 287.923 7.89917C331.977 22.1333 360.638 52.3893 372.083 71.7681C372.926 73.1947 372.453 75.0343 371.026 75.8769C369.6 76.7195 367.76 76.2461 366.917 74.8195C356.126 56.5484 328.576 27.3399 286.078 13.6085C284.502 13.0991 283.636 11.4081 284.146 9.83148ZM2.5031 60.8353C27.4439 56.6424 51.2015 56.7607 73.4484 60.1199C75.0867 60.3673 76.2142 61.896 75.9668 63.5342C75.7195 65.1725 74.1908 66.3001 72.5526 66.0527C50.9163 62.7857 27.797 62.6672 3.49784 66.7523C1.86392 67.027 0.316678 65.9251 0.0419897 64.2912C-0.232699 62.6573 0.86918 61.11 2.5031 60.8353Z" fill="#E8817D"/>
</svg>
