<svg width="157" height="264" viewBox="0 0 157 264" fill="none" xmlns="http://www.w3.org/2000/svg">
<path fill-rule="evenodd" clip-rule="evenodd" d="M151.919 0.285942C141.467 2.16902 132.804 7.6859 125.386 17.184C119.796 24.3417 113.098 38.3276 110.228 48.8347C108.012 56.9467 106.738 62.4827 105.872 67.7599C104.933 73.4866 104.927 73.5113 104.427 73.5225C104.207 73.5274 102.549 71.7767 100.742 69.6315C88.0629 54.5782 74.2252 44.4627 60.8903 40.5009C54.2621 38.5316 43.514 38.6057 37.2824 40.664C26.8999 44.0931 15.4928 53.6584 9.35068 64.0857C4.8936 71.6535 2.27909 78.8952 0.974372 87.2868C0.0740535 93.0801 -0.0783497 104.042 0.669814 109.203C1.48489 114.828 2.43279 119.998 3.06085 122.247C3.7927 124.869 7.4061 135.816 7.88868 136.874C8.09163 137.32 9.16654 139.69 10.2773 142.141C12.2927 146.59 12.783 147.555 15.9323 153.271C19.4005 159.564 25.2545 168.29 30.4063 174.844C40.9061 188.202 56.4063 203.637 70.3114 214.582C75.8192 218.917 79.3792 221.661 80.4928 222.429C81.1249 222.865 82.6407 223.936 83.8611 224.809C89.9491 229.165 95.6133 232.911 102.151 236.904C105.098 238.704 108.796 240.966 110.37 241.931C114.787 244.639 131.815 253.811 132.869 254.051C133.385 254.168 134.028 254.517 134.297 254.827C135.119 255.772 134.104 256.504 130.865 257.3C129.115 257.73 127.588 258.367 127.182 258.836C126.543 259.574 126.541 259.761 127.151 261.173C127.798 262.671 127.861 262.705 129.741 262.561C130.801 262.48 132.725 262.114 134.017 261.749C138.51 260.478 146.984 260.935 150.466 262.635C152.034 263.402 153.256 263.311 154.815 262.313C157.369 260.678 155.941 256.963 152.786 257.033C152.377 257.042 150.73 256.431 149.126 255.674C144.361 253.424 140.836 249.287 137.928 242.529C137.223 240.891 136.289 240.628 134.196 241.477C133.347 241.821 133.161 242.168 133.188 243.361C133.206 244.166 133.485 245.315 133.807 245.916C134.131 246.516 134.532 247.419 134.7 247.922C135.162 249.307 133.68 249.145 130.822 247.497C129.507 246.739 128.311 246.121 128.165 246.124C128.018 246.127 126.27 245.197 124.28 244.056C122.289 242.915 120.195 241.766 119.625 241.502C119.056 241.239 118.222 240.8 117.771 240.527C117.319 240.254 115.858 239.365 114.522 238.551C113.186 237.736 112.019 237.072 111.929 237.074C111.838 237.076 110.1 236.01 108.067 234.704C106.033 233.399 104.264 232.334 104.136 232.337C103.863 232.343 96.3289 227.378 93.0831 225.052C91.8506 224.169 90.5033 223.265 90.089 223.043C88.6948 222.297 77.0243 213.598 71.7496 209.374C66.0841 204.836 56.6542 196.353 52.0871 191.686C49.4622 189.003 46.9377 186.434 46.4768 185.977C45.2004 184.71 41.6325 180.64 39.7916 178.351C38.8876 177.227 38.0246 176.218 37.8743 176.109C36.9168 175.415 25.1951 159.583 25.1813 158.966C25.1789 158.858 24.1667 157.186 22.9324 155.25C20.5723 151.551 16.1215 143.166 14.511 139.386C13.9886 138.16 13.2648 136.518 12.9032 135.739C11.6276 132.99 9.68319 127.063 7.70348 119.892C6.7484 116.432 6.63676 115.838 5.85619 110.034C4.93561 103.193 4.81183 98.0854 5.42068 92.0837C6.04743 85.9118 6.19377 85.2192 8.32462 78.3346C10.7745 70.4196 16.2746 61.5485 22.0926 56.1289C32.2771 46.6413 42.734 42.5467 53.2127 43.9423C57.1281 44.4641 63.8262 46.5133 67.1669 48.2116C71.0477 50.1847 71.1597 50.2464 73.7687 51.851C81.0305 56.318 91.8218 66.3702 98.6457 75.0255C104.36 82.2731 104.357 82.2675 103.848 85.7153C103.087 90.8793 103.299 106.344 104.224 113.092C105.995 126.015 108.491 133.098 112.688 137.113C117.053 141.29 122.071 141.302 125.922 137.144C128.242 134.639 129.27 129.545 128.472 124.505C127.348 117.409 125.959 112.658 122.84 105.24C121.298 101.575 115.926 91.1497 114.604 89.2572C114.218 88.7031 113.667 87.7945 113.382 87.2381C113.096 86.6817 112.531 85.7452 112.126 85.1571C109.256 80.9904 109.084 80.515 109.456 77.8045C110.239 72.1153 111.985 61.9768 112.506 60.0946C112.811 58.9929 113.055 57.8214 113.047 57.4921C113.02 56.2852 117.332 43.0171 119.242 38.4299C126.067 22.0378 134.571 11.9153 145.317 7.39427C147.469 6.48944 151.821 5.33642 153.202 5.30549C153.809 5.29189 154.73 4.97003 155.248 4.59007C156.047 4.00366 156.151 3.65221 155.933 2.26466C155.582 0.0332427 154.977 -0.265091 151.919 0.285942ZM111.82 94.3339C115.157 100.141 119.642 109.998 120.901 114.288C121.098 114.959 121.669 116.88 122.171 118.557C123.321 122.403 123.935 129.152 123.348 131.504C122.836 133.56 121.314 134.948 119.53 134.988C114.326 135.105 110.222 125.063 108.839 108.833C108.248 101.898 108.188 92.2828 108.729 91.362C109.246 90.4835 110.055 91.2607 111.82 94.3339Z" fill="#E8817D"/>
</svg>
