<svg width="254" height="184" viewBox="0 0 254 184" fill="none" xmlns="http://www.w3.org/2000/svg">
<path fill-rule="evenodd" clip-rule="evenodd" d="M71.6168 148.364C71.3478 146.244 71.1054 144.419 70.9721 143.455C70.1476 137.591 69.8666 122.779 66.1675 112.559C63.3481 104.761 58.5366 99.6043 50.8296 101.067C43.8248 102.396 39.2176 109.132 36.7395 118.606C31.4064 138.997 35.4252 172.096 39.2217 181.782C39.6367 182.839 40.8257 183.36 41.8829 182.945C42.9354 182.533 43.4565 181.343 43.0414 180.286C39.4006 170.99 35.5905 139.219 40.7099 119.643C42.712 111.992 45.9385 106.173 51.5974 105.1C57.1817 104.039 60.2634 108.301 62.3072 113.954C65.9092 123.9 66.1067 138.317 66.9065 144.027C67.4097 147.606 68.9436 161.31 69.358 162.452C69.8758 163.884 71.0711 163.895 71.4636 163.87C71.7678 163.85 73.2784 163.655 73.4243 161.795C75.5208 135.271 97.0964 96.0214 127.489 70.4141C157.613 45.0315 196.539 33.0707 233.865 61.0604C234.773 61.7385 236.06 61.5539 236.741 60.6508C237.419 59.7429 237.234 58.4551 236.327 57.777C197.217 28.4507 156.405 40.6817 124.845 67.2725C98.2464 89.6822 78.3222 122.307 71.6168 148.364Z" fill="white"/>
<path fill-rule="evenodd" clip-rule="evenodd" d="M232.96 58.2283C228.124 58.4236 223.303 58.4642 218.48 59.0354C205.629 60.555 192.598 64.8557 181.918 72.2439C180.985 72.8926 180.755 74.1708 181.397 75.1015C182.045 76.0347 183.323 76.2646 184.254 75.6227C194.386 68.6047 206.769 64.5547 218.961 63.1141C224.482 62.463 230.007 62.5164 235.548 62.2206C235.825 62.2024 238.237 62.1474 238.742 61.9959C239.922 61.6501 240.19 60.7533 240.261 60.3225C240.324 59.9632 240.314 59.5179 240.1 59.0122C239.922 58.5982 239.4 57.8918 238.501 57.0958C235.628 54.5373 228.073 49.5308 226.92 48.5776C213.698 37.6549 203.232 25.2735 191.886 12.5138C191.13 11.6695 189.831 11.5917 188.984 12.3431C188.138 13.0945 188.065 14.392 188.816 15.2385C200.304 28.1607 210.921 40.6841 224.304 51.7376C225.095 52.3954 229.673 55.7966 232.96 58.2283Z" fill="white"/>
<path fill-rule="evenodd" clip-rule="evenodd" d="M181.918 72.2439C192.598 64.8557 205.629 60.5549 218.48 59.0354C222.217 58.5929 225.952 58.4688 229.695 58.3445C230.463 58.319 231.232 58.2935 232.001 58.2652C232.321 58.2534 232.641 58.2412 232.96 58.2283C232.71 58.0432 232.452 57.8525 232.189 57.6578C228.998 55.2947 225.035 52.3453 224.304 51.7375C212.434 41.9339 202.741 30.974 192.685 19.6051C191.403 18.1557 190.115 16.6996 188.816 15.2384C188.065 14.392 188.138 13.0944 188.984 12.343C189.831 11.5916 191.13 11.6694 191.887 12.5137C193.232 14.0274 194.566 15.5357 195.893 17.0369C205.754 28.1905 215.267 38.9506 226.92 48.5776C227.312 48.902 228.446 49.6959 229.885 50.7031C232.673 52.6551 236.606 55.408 238.501 57.0958C239.4 57.8918 239.922 58.5981 240.1 59.0122C240.314 59.5178 240.324 59.9632 240.261 60.3224C240.19 60.7533 239.922 61.65 238.742 61.9959C238.337 62.1174 236.705 62.1768 235.932 62.2049C235.742 62.2119 235.603 62.2169 235.548 62.2205C233.714 62.3185 231.881 62.3781 230.05 62.4378C226.349 62.5582 222.654 62.6785 218.961 63.1141C206.769 64.5547 194.386 68.6047 184.254 75.6226C183.323 76.2645 182.045 76.0347 181.397 75.1014C180.755 74.1707 180.985 72.8926 181.918 72.2439ZM219.031 63.7099C206.916 65.1414 194.632 69.1643 184.596 76.1159L184.595 76.1166C183.392 76.946 181.741 76.6486 180.904 75.4439L180.903 75.4421C180.073 74.2394 180.371 72.5886 181.576 71.7512L181.577 71.7504C192.352 64.2966 205.48 59.9684 218.409 58.4395C222.174 57.9937 225.944 57.8686 229.69 57.7443C230.203 57.7272 230.716 57.7102 231.228 57.6924C228.166 55.4227 224.623 52.783 223.922 52.1994C212.013 42.3641 202.287 31.3678 192.236 20.0026C190.953 18.5529 189.666 17.0972 188.368 15.6371L188.368 15.6367C187.398 14.5441 187.49 12.8672 188.586 11.8943C189.681 10.9223 191.358 11.0246 192.333 12.1135L192.335 12.115C193.682 13.6302 195.016 15.1392 196.343 16.6404C206.207 27.7971 215.688 38.5201 227.302 48.115L227.302 48.1151C227.675 48.4237 228.769 49.1894 230.185 50.1803C230.867 50.6581 231.624 51.1882 232.412 51.7447C234.797 53.4304 237.433 55.3412 238.899 56.6471C239.827 57.4686 240.423 58.2443 240.651 58.7753L240.653 58.7782C240.916 59.4008 240.933 59.9637 240.852 60.423C240.763 60.9643 240.405 62.1337 238.911 62.5716C238.716 62.6294 238.411 62.6644 238.122 62.69C237.809 62.7177 237.443 62.7398 237.089 62.7575C236.64 62.7799 236.232 62.7945 235.95 62.8046C235.77 62.811 235.642 62.8156 235.588 62.8192L235.58 62.8197C233.719 62.9191 231.872 62.9791 230.035 63.0388C226.35 63.1586 222.7 63.2773 219.031 63.7099Z" fill="white"/>
</svg>
