<svg width="267" height="266" viewBox="0 0 267 266" fill="none" xmlns="http://www.w3.org/2000/svg">
<path fill-rule="evenodd" clip-rule="evenodd" d="M203.142 1.14642C204.166 -0.156396 206.052 -0.382712 207.355 0.640929C225.091 14.5767 248.161 38.8642 259.502 66.5243C265.188 80.394 267.981 95.2512 265.527 110.124C263.065 125.043 255.365 139.714 240.52 153.219C239.294 154.334 237.397 154.244 236.282 153.019C235.167 151.793 235.257 149.896 236.482 148.781C250.437 136.085 257.388 122.594 259.607 109.147C261.833 95.6548 259.339 81.9433 253.95 68.8004C243.141 42.4355 220.911 18.923 203.648 5.35884C202.345 4.3352 202.118 2.44923 203.142 1.14642ZM51.9608 37.9968C41.25 39.2777 32.1968 44.178 26.0123 53.6411C19.662 63.3578 19.0321 74.0225 22.8838 85.0399C26.7733 96.1649 35.2432 107.619 47.027 118.419C48.2485 119.538 48.3312 121.436 47.2117 122.657C46.0923 123.879 44.1946 123.962 42.9731 122.842C30.7664 111.655 21.5506 99.4068 17.22 87.02C12.8518 74.5255 13.4676 61.8685 20.9898 50.3587C28.2617 39.2317 38.9997 33.504 51.2483 32.0392C63.3998 30.5861 76.9994 33.3176 90.3718 38.916C117.086 50.1001 143.784 73.1023 157.611 99.6125C158.377 101.082 157.807 102.894 156.338 103.66C154.869 104.426 153.057 103.856 152.291 102.387C139.171 77.2331 113.6 55.1453 88.0547 44.4505C75.297 39.1095 62.7688 36.7043 51.9608 37.9968ZM161.732 117.713C163.344 117.328 164.962 118.322 165.347 119.933C169.228 136.169 167.595 152.845 158.094 168.218C174.484 170.116 190.431 169.488 204.722 165.644C206.322 165.213 207.968 166.161 208.398 167.761C208.828 169.361 207.88 171.007 206.28 171.438C190.233 175.755 172.393 176.22 154.26 173.785C150.415 178.829 145.651 183.702 139.88 188.339C130.065 196.224 120.591 202.715 111.517 207.982C119.465 222.082 122.889 240.412 118.959 263.503C118.681 265.137 117.131 266.235 115.498 265.957C113.865 265.679 112.766 264.13 113.044 262.496C116.781 240.539 113.461 223.64 106.28 210.911C76.0866 227.161 50.6127 229.756 32.1696 225.291C19.7361 222.28 10.433 216.024 5.30313 208.503C0.1426 200.936 -0.794204 191.981 3.95906 184.405C6.37828 180.55 10.4033 177.568 15.2233 175.396C20.0693 173.214 25.9181 171.758 32.2888 171.072C45.0239 169.701 60.1965 171.37 74.3418 176.893C87.3939 181.988 99.6917 190.416 108.332 202.896C117.167 197.78 126.449 191.432 136.122 183.661C140.511 180.135 144.259 176.483 147.417 172.732C127.552 169.292 107.563 162.534 89.405 153.697C87.9152 152.972 87.2952 151.177 88.0201 149.687C88.7451 148.197 90.5406 147.577 92.0304 148.302C110.798 157.435 131.37 164.199 151.523 167.326C161.491 152.671 163.208 136.794 159.512 121.328C159.127 119.716 160.121 118.098 161.732 117.713ZM103.063 205.832C95.2462 194.779 84.1617 187.168 72.1598 182.482C58.9298 177.317 44.7273 175.768 32.9309 177.037C27.0358 177.672 21.8299 179.001 17.6875 180.867C13.5192 182.745 10.6222 185.075 9.04144 187.594C5.79465 192.769 6.1704 199.126 10.26 205.122C14.3802 211.163 22.2648 216.719 33.5815 219.459C50.1876 223.48 74.0509 221.356 103.063 205.832ZM63.9953 135.599C64.9071 134.216 66.7677 133.833 68.1511 134.745C72.4042 137.549 76.8522 140.241 81.4571 142.8C82.9054 143.605 83.4272 145.431 82.6225 146.879C81.8178 148.328 79.9914 148.849 78.5431 148.045C73.8102 145.415 69.2325 142.644 64.8491 139.755C63.4657 138.843 63.0834 136.982 63.9953 135.599Z" fill="#E8817D"/>
<path fill-rule="evenodd" clip-rule="evenodd" d="M51.9608 37.9968C41.25 39.2777 32.1968 44.178 26.0123 53.6411C19.662 63.3578 19.032 74.0225 22.8838 85.0399C26.7733 96.1649 35.2432 107.619 47.027 118.419C48.2485 119.538 48.3312 121.436 47.2117 122.657C46.0923 123.879 44.1946 123.962 42.9731 122.842C30.7664 111.655 21.5506 99.4068 17.22 87.02C12.8518 74.5255 13.4676 61.8685 20.9898 50.3587C28.2617 39.2317 38.9997 33.504 51.2483 32.0392C63.3998 30.5861 76.9994 33.3176 90.3718 38.916C117.086 50.1001 143.784 73.1023 157.611 99.6125C158.377 101.082 157.807 102.894 156.338 103.66C154.869 104.426 153.057 103.856 152.291 102.387C139.171 77.2331 113.6 55.1453 88.0547 44.4505C75.297 39.1095 62.7688 36.7043 51.9608 37.9968Z" fill="#E8817D"/>
</svg>
