<svg width="50" height="50" viewBox="0 0 50 50" fill="none" xmlns="http://www.w3.org/2000/svg">
<path d="M38.9586 30.1249C38.2294 30.8541 37.8128 32.3124 38.0419 33.3124L39.4794 39.6041C40.0836 42.2082 39.7086 44.1666 38.4169 45.1041C37.8961 45.4791 37.2711 45.6666 36.5419 45.6666C35.4794 45.6666 34.2294 45.2707 32.8544 44.4582L26.7503 40.8332C25.7919 40.2707 24.2086 40.2707 23.2503 40.8332L17.1461 44.4582C14.8336 45.8124 12.8544 46.0416 11.5836 45.1041C11.5003 45.0416 11.4169 44.9791 11.3544 44.8957L37.6461 18.6041C38.6044 17.6457 39.9586 17.2082 41.2919 17.4374L41.6044 17.4999C43.8128 17.8749 45.2919 18.8749 45.7711 20.3332C46.2294 21.7916 45.6044 23.4791 44.0211 25.0624L38.9586 30.1249Z" fill="white"/>
<path d="M11.958 33.3334C12.1872 32.3334 11.7705 30.8542 11.0414 30.125L5.97885 25.0625C4.39552 23.4792 3.77052 21.7917 4.22885 20.3334C4.70802 18.875 6.18719 17.875 8.39552 17.5L14.8955 16.4167C15.833 16.25 16.9789 15.4167 17.4164 14.5625L20.9997 7.37502C22.0414 5.31252 23.458 4.16669 24.9997 4.16669C26.5414 4.16669 27.958 5.31252 28.9997 7.37502L32.583 14.5625C32.8539 15.1042 33.4164 15.625 34.0205 15.9792L10.5622 39.4375L11.958 33.3334Z" fill="white"/>
<path d="M45.3538 4.64587C44.7288 4.02087 43.708 4.02087 43.083 4.64587L4.64545 43.1042C4.02045 43.7292 4.02045 44.75 4.64545 45.375C4.95795 45.6667 5.35378 45.8334 5.77045 45.8334C6.18711 45.8334 6.58295 45.6667 6.89545 45.3542L45.3538 6.89587C45.9996 6.27087 45.9996 5.27087 45.3538 4.64587Z" fill="white"/>
</svg>
