<svg width="35" height="35" viewBox="0 0 35 35" fill="none" xmlns="http://www.w3.org/2000/svg">
<path d="M11.7133 12.3262C11.7133 10.4941 9.27654 10.0085 8.63004 11.7228C7.06621 15.8695 5.92676 19.579 5.92676 21.5846C5.92676 27.9762 11.1082 33.1577 17.4999 33.1577C23.8916 33.1577 29.073 27.9762 29.073 21.5846C29.073 19.4299 27.7578 15.3083 26.0141 10.7909C23.7553 4.93909 22.626 2.01317 21.2318 1.85558C20.7857 1.80515 20.2991 1.89581 19.9011 2.1035C18.6572 2.75255 18.6572 5.94377 18.6572 12.3262C18.6572 14.2437 17.1028 15.7982 15.1853 15.7982C13.2678 15.7982 11.7133 14.2437 11.7133 12.3262Z" fill="#FF8540"/>
</svg>
