<svg width="30" height="30" viewBox="0 0 30 30" fill="none" xmlns="http://www.w3.org/2000/svg">
<path d="M20 2.5H10C5 2.5 2.5 5 2.5 10V26.25C2.5 26.9375 3.0625 27.5 3.75 27.5H20C25 27.5 27.5 25 27.5 20V10C27.5 5 25 2.5 20 2.5ZM17.5 19.0625H8.75C8.2375 19.0625 7.8125 18.6375 7.8125 18.125C7.8125 17.6125 8.2375 17.1875 8.75 17.1875H17.5C18.0125 17.1875 18.4375 17.6125 18.4375 18.125C18.4375 18.6375 18.0125 19.0625 17.5 19.0625ZM21.25 12.8125H8.75C8.2375 12.8125 7.8125 12.3875 7.8125 11.875C7.8125 11.3625 8.2375 10.9375 8.75 10.9375H21.25C21.7625 10.9375 22.1875 11.3625 22.1875 11.875C22.1875 12.3875 21.7625 12.8125 21.25 12.8125Z" fill="#70B2FF"/>
</svg>
