<svg width="36" height="36" viewBox="0 0 36 36" fill="none" xmlns="http://www.w3.org/2000/svg">
<path d="M25.3399 20.49L24.3399 18.83C24.1299 18.46 23.9399 17.76 23.9399 17.35V14.82C23.9399 12.47 22.5599 10.44 20.5699 9.49C20.0499 8.57 19.0899 8 17.9899 8C16.8999 8 15.9199 8.59 15.3999 9.52C13.4499 10.49 12.0999 12.5 12.0999 14.82V17.35C12.0999 17.76 11.9099 18.46 11.6999 18.82L10.6899 20.49C10.2899 21.16 10.1999 21.9 10.4499 22.58C10.6899 23.25 11.2599 23.77 11.9999 24.02C13.9399 24.68 15.9799 25 18.0199 25C20.0599 25 22.0999 24.68 24.0399 24.03C24.7399 23.8 25.2799 23.27 25.5399 22.58C25.7999 21.89 25.7299 21.13 25.3399 20.49Z" fill="#70B2FF"/>
<path d="M20.8299 26.01C20.4099 27.17 19.2999 28 17.9999 28C17.2099 28 16.4299 27.68 15.8799 27.11C15.5599 26.81 15.3199 26.41 15.1799 26C15.3099 26.02 15.4399 26.03 15.5799 26.05C15.8099 26.08 16.0499 26.11 16.2899 26.13C16.8599 26.18 17.4399 26.21 18.0199 26.21C18.5899 26.21 19.1599 26.18 19.7199 26.13C19.9299 26.11 20.1399 26.1 20.3399 26.07C20.4999 26.05 20.6599 26.03 20.8299 26.01Z" fill="#70B2FF"/>
<path d="M35.5814 0.405101C35.0414 -0.135034 34.1593 -0.135034 33.6192 0.405101L0.405051 33.6414C-0.135017 34.1815 -0.135017 35.0638 0.405051 35.6039C0.675084 35.856 1.01713 36 1.37717 36C1.73722 36 2.07926 35.856 2.34929 35.5859L35.5814 2.34959C36.1395 1.80945 36.1395 0.945236 35.5814 0.405101Z" fill="#F1F8FF"/>
<path d="M27.765 8.225C27.465 7.925 26.975 7.925 26.675 8.225L8.225 26.685C7.925 26.985 7.925 27.475 8.225 27.775C8.375 27.915 8.565 27.995 8.765 27.995C8.965 27.995 9.155 27.915 9.305 27.765L27.765 9.305C28.075 9.005 28.075 8.525 27.765 8.225Z" fill="#70B2FF"/>
</svg>
