<svg width="54" height="54" viewBox="0 0 54 54" fill="none" xmlns="http://www.w3.org/2000/svg">
<path d="M47.4526 15.705C45.5401 13.59 42.3451 12.5325 37.7101 12.5325H37.1701V12.4425C37.1701 8.6625 37.1701 3.9825 28.7101 3.9825H25.2901C16.8301 3.9825 16.8301 8.685 16.8301 12.4425V12.555H16.2901C11.6326 12.555 8.46008 13.6125 6.54758 15.7275C4.32008 18.2025 4.38758 21.5325 4.61258 23.805L4.63508 23.9625L4.83754 26.0883C4.8518 26.2381 4.93229 26.3731 5.05788 26.456C5.51476 26.7574 6.65298 27.5011 7.29008 27.855C7.60508 28.0575 7.94258 28.2375 8.28008 28.4175C12.1276 30.5325 16.3576 31.95 20.6551 32.6475C20.8576 34.7625 21.7801 37.2375 26.7076 37.2375C31.6351 37.2375 32.6026 34.785 32.7601 32.6025C37.3501 31.86 41.7826 30.2625 45.7876 27.9225C45.9226 27.855 46.0126 27.7875 46.1251 27.72C47.0963 27.171 48.1072 26.4834 49.0089 25.8244C49.1214 25.7422 49.1938 25.6163 49.2092 25.4777L49.2751 24.885L49.3876 23.8275C49.4101 23.6925 49.4101 23.58 49.4326 23.4225C49.6126 21.15 49.5676 18.045 47.4526 15.705ZM29.4526 31.1175C29.4526 33.5025 29.4526 33.8625 26.6851 33.8625C23.9176 33.8625 23.9176 33.435 23.9176 31.14V28.305H29.4526V31.1175ZM20.0476 12.5325V12.4425C20.0476 8.6175 20.0476 7.2 25.2901 7.2H28.7101C33.9526 7.2 33.9526 8.64 33.9526 12.4425V12.555H20.0476V12.5325Z" fill="#FF8540"/>
<path d="M47.9781 30.4152C48.3304 30.2441 48.7342 30.525 48.6988 30.915L47.7899 40.9275C47.3174 45.4275 45.4724 50.0175 35.5724 50.0175H18.4274C8.52739 50.0175 6.68239 45.4275 6.20989 40.95L5.34418 31.4272C5.30914 31.0417 5.70528 30.7618 6.05674 30.924C8.22203 31.9228 14.2995 34.6574 17.6023 35.4452C17.7675 35.4847 17.9001 35.6018 17.9653 35.7586C19.2628 38.8803 22.2808 40.545 26.7074 40.545C31.0901 40.545 34.1496 38.8163 35.4494 35.6913C35.5146 35.5344 35.6471 35.4173 35.8124 35.3779C39.3109 34.5433 45.7314 31.5059 47.9781 30.4152Z" fill="#FF8540"/>
</svg>
