<svg width="35" height="35" viewBox="0 0 35 35" fill="none" xmlns="http://www.w3.org/2000/svg">
<path d="M16.1144 21.8019L13.4165 24.4998C12.8478 25.0686 12.2498 25.3457 11.6665 24.7915C11.5061 24.6311 11.0394 24.2082 10.879 24.0478C9.37692 22.5311 8.02067 20.9415 6.81025 19.279C5.61442 17.6165 4.65192 15.954 3.95192 14.3061C3.2665 12.6436 2.9165 11.054 2.9165 9.53734C2.9165 8.54567 3.0915 7.59775 3.4415 6.72275C3.7915 5.83317 4.34567 5.0165 5.11859 4.28734C6.05192 3.36859 7.07275 2.9165 8.15192 2.9165C8.56025 2.9165 8.96859 3.004 9.33317 3.179C9.71234 3.354 10.0478 3.6165 10.3103 3.99567L13.6936 8.76442C13.9561 9.129 14.1457 9.46442 14.2769 9.78525C14.4082 10.0915 14.4811 10.3978 14.4811 10.6748C14.4811 11.0248 14.379 11.3748 14.1748 11.7103C13.9853 12.0457 13.7082 12.3957 13.3582 12.7457L12.2498 13.8978C12.0894 14.0582 12.0165 14.2478 12.0165 14.4811C12.0165 14.5978 12.0311 14.6998 12.0603 14.8165C12.104 14.9332 12.1478 15.0207 12.1769 15.1082C12.4394 15.5894 12.8915 16.2165 13.5332 16.9748C14.1894 17.7332 14.8894 18.5061 15.6478 19.279C15.7936 19.4248 15.954 19.5707 16.0998 19.7165C16.6832 20.2853 16.6978 21.2186 16.1144 21.8019Z" fill="#FF8540"/>
<path d="M32.0394 26.7313C32.0394 27.1396 31.9665 27.5625 31.8207 27.9708C31.7769 28.0875 31.7332 28.2042 31.6748 28.3208C31.4269 28.8458 31.1061 29.3417 30.6832 29.8083C29.9686 30.5958 29.1811 31.1646 28.2915 31.5292C28.2769 31.5292 28.2623 31.5438 28.2478 31.5438C27.3873 31.8938 26.454 32.0833 25.4478 32.0833C23.9603 32.0833 22.3707 31.7333 20.6936 31.0188C19.0165 30.3042 17.3394 29.3417 15.6769 28.1313C15.1082 27.7083 12.2061 25.2438 11.6665 24.7917L16.0415 19.6875C16.4498 19.9938 19.5415 22.6042 19.8478 22.7646C19.9207 22.7938 20.0082 22.8375 20.1103 22.8813C20.2269 22.925 20.3436 22.9396 20.4748 22.9396C20.7228 22.9396 20.9123 22.8521 21.0728 22.6917L22.1811 21.5979C22.5457 21.2333 22.8957 20.9563 23.2311 20.7813C23.5665 20.5771 23.9019 20.475 24.2665 20.475C24.5436 20.475 24.8353 20.5333 25.1561 20.6646C25.4769 20.7958 25.8123 20.9854 26.1769 21.2333L31.004 24.6604C31.3832 24.9229 31.6457 25.2292 31.8061 25.5938C31.9519 25.9583 32.0394 26.3229 32.0394 26.7313Z" fill="#FF8540"/>
</svg>
