<svg width="35" height="35" viewBox="0 0 35 35" fill="none" xmlns="http://www.w3.org/2000/svg">
<path d="M24.7915 2.91663H10.2082C6.18317 2.91663 2.9165 6.16871 2.9165 10.1791V18.9V20.3583C2.9165 24.3687 6.18317 27.6208 10.2082 27.6208H12.3957C12.7894 27.6208 13.3144 27.8833 13.5623 28.2041L15.7498 31.1062C16.7123 32.3895 18.2873 32.3895 19.2498 31.1062L21.4373 28.2041C21.7144 27.8395 22.1519 27.6208 22.604 27.6208H24.7915C28.8165 27.6208 32.0832 24.3687 32.0832 20.3583V10.1791C32.0832 6.16871 28.8165 2.91663 24.7915 2.91663ZM11.6665 17.5C10.8498 17.5 10.2082 16.8437 10.2082 16.0416C10.2082 15.2395 10.8644 14.5833 11.6665 14.5833C12.4686 14.5833 13.1248 15.2395 13.1248 16.0416C13.1248 16.8437 12.4832 17.5 11.6665 17.5ZM17.4998 17.5C16.6832 17.5 16.0415 16.8437 16.0415 16.0416C16.0415 15.2395 16.6978 14.5833 17.4998 14.5833C18.3019 14.5833 18.9582 15.2395 18.9582 16.0416C18.9582 16.8437 18.3165 17.5 17.4998 17.5ZM23.3332 17.5C22.5165 17.5 21.8748 16.8437 21.8748 16.0416C21.8748 15.2395 22.5311 14.5833 23.3332 14.5833C24.1353 14.5833 24.7915 15.2395 24.7915 16.0416C24.7915 16.8437 24.1498 17.5 23.3332 17.5Z" fill="#FF8540"/>
</svg>
