<svg width="82" height="82" viewBox="0 0 82 82" fill="none" xmlns="http://www.w3.org/2000/svg">
<path d="M57.5149 46.6023L55.2649 42.8673C54.7924 42.0348 54.3649 40.4598 54.3649 39.5373V33.8448C54.3649 28.5573 51.2599 23.9898 46.7824 21.8523C45.6124 19.7823 43.4524 18.4998 40.9774 18.4998C38.5249 18.4998 36.3199 19.8273 35.1499 21.9198C30.7624 24.1023 27.7249 28.6248 27.7249 33.8448V39.5373C27.7249 40.4598 27.2974 42.0348 26.8249 42.8448L24.5524 46.6023C23.6524 48.1098 23.4499 49.7748 24.0124 51.3048C24.5524 52.8123 25.8349 53.9823 27.4999 54.5448C31.8649 56.0298 36.4549 56.7498 41.0449 56.7498C45.6349 56.7498 50.2249 56.0298 54.5899 54.5673C56.1649 54.0498 57.3799 52.8573 57.9649 51.3048C58.5499 49.7523 58.3924 48.0423 57.5149 46.6023Z" fill="#FF8540"/>
<path d="M47.3678 59.0227C46.4228 61.6327 43.9253 63.5002 41.0003 63.5002C39.2228 63.5002 37.4678 62.7802 36.2303 61.4977C35.5103 60.8227 34.9703 59.9227 34.6553 59.0002C34.9478 59.0452 35.2403 59.0677 35.5553 59.1127C36.0728 59.1802 36.6128 59.2477 37.1528 59.2927C38.4353 59.4052 39.7403 59.4727 41.0453 59.4727C42.3278 59.4727 43.6103 59.4052 44.8703 59.2927C45.3428 59.2477 45.8153 59.2252 46.2653 59.1577C46.6253 59.1127 46.9853 59.0677 47.3678 59.0227Z" fill="#FF8540"/>
<path d="M80.5583 1.41108C79.3431 0.195777 77.3584 0.195777 76.1432 1.41108L1.41136 76.1928C0.196212 77.4081 0.196212 79.3931 1.41136 80.6084C2.01894 81.1755 2.78854 81.4996 3.59864 81.4996C4.40874 81.4996 5.17833 81.1755 5.78591 80.5679L80.5583 5.78618C81.8139 4.57087 81.8139 2.62639 80.5583 1.41108Z" fill="#FAFAFA"/>
<path d="M62.9713 19.006C62.2963 18.331 61.1938 18.331 60.5188 19.006L19.0063 60.541C18.3312 61.216 18.3312 62.3185 19.0063 62.9935C19.3438 63.3085 19.7713 63.4885 20.2212 63.4885C20.6712 63.4885 21.0987 63.3085 21.4362 62.971L62.9713 21.436C63.6688 20.761 63.6688 19.681 62.9713 19.006Z" fill="#FF8540"/>
</svg>
