<svg width="54" height="54" viewBox="0 0 54 54" fill="none" xmlns="http://www.w3.org/2000/svg">
<path d="M20.25 4.5C14.355 4.5 9.5625 9.2925 9.5625 15.1875C9.5625 20.97 14.085 25.65 19.98 25.8525C20.16 25.83 20.34 25.83 20.475 25.8525C20.52 25.8525 20.5425 25.8525 20.5875 25.8525C20.61 25.8525 20.61 25.8525 20.6325 25.8525C26.3925 25.65 30.915 20.97 30.9375 15.1875C30.9375 9.2925 26.145 4.5 20.25 4.5Z" fill="#FF8540"/>
<path d="M31.6802 31.8375C25.4027 27.6525 15.1652 27.6525 8.84266 31.8375C5.98516 33.75 4.41016 36.3375 4.41016 39.105C4.41016 41.8725 5.98516 44.4375 8.82016 46.3275C11.9702 48.4425 16.1102 49.5 20.2502 49.5C24.3902 49.5 28.5302 48.4425 31.6802 46.3275C34.5152 44.415 36.0902 41.85 36.0902 39.06C36.0677 36.2925 34.5152 33.7275 31.6802 31.8375Z" fill="#FF8540"/>
<path d="M44.9776 16.515C45.3376 20.88 42.2326 24.705 37.9351 25.2225C37.9126 25.2225 37.9126 25.2225 37.8901 25.2225H37.8226C37.6876 25.2225 37.5526 25.2225 37.4401 25.2675C35.2576 25.38 33.2551 24.6825 31.7476 23.4C34.0651 21.33 35.3926 18.225 35.1226 14.85C34.9651 13.0275 34.3351 11.3625 33.3901 9.945C34.2451 9.5175 35.2351 9.2475 36.2476 9.1575C40.6576 8.775 44.5951 12.06 44.9776 16.515Z" fill="#FF8540"/>
<path d="M49.4775 37.3275C49.2975 39.51 47.9025 41.4 45.5625 42.6825C43.3125 43.92 40.4775 44.505 37.665 44.4375C39.285 42.975 40.23 41.1525 40.41 39.2175C40.635 36.4275 39.3075 33.75 36.6525 31.6125C35.145 30.42 33.39 29.475 31.4775 28.7775C36.45 27.3375 42.705 28.305 46.5525 31.41C48.6225 33.075 49.68 35.1675 49.4775 37.3275Z" fill="#FF8540"/>
</svg>
