<svg width="35" height="35" viewBox="0 0 35 35" fill="none" xmlns="http://www.w3.org/2000/svg">
<path d="M24.7918 5.10413H10.2084C5.83342 5.10413 2.91675 7.29163 2.91675 12.3958V22.6041C2.91675 27.7083 5.83342 29.8958 10.2084 29.8958H24.7918C29.1668 29.8958 32.0834 27.7083 32.0834 22.6041V12.3958C32.0834 7.29163 29.1668 5.10413 24.7918 5.10413ZM25.4772 13.9854L20.9126 17.6312C19.9501 18.4041 18.7251 18.7833 17.5001 18.7833C16.2751 18.7833 15.0355 18.4041 14.0876 17.6312L9.523 13.9854C9.05633 13.6062 8.98342 12.9062 9.348 12.4395C9.72717 11.9729 10.4126 11.8854 10.8792 12.2645L15.4438 15.9104C16.5522 16.8 18.4334 16.8 19.5417 15.9104L24.1063 12.2645C24.573 11.8854 25.273 11.9583 25.6376 12.4395C26.0168 12.9062 25.9438 13.6062 25.4772 13.9854Z" fill="#FF8540"/>
</svg>
